IKResults
version=1
nRows=10
nColumns=40
inDegrees=yes

Units are S.I. units (second, meters, Newtons, ...)
Angles are in degrees.

endheader
time	pelvis_tilt	pelvis_list	pelvis_rotation	pelvis_tx	pelvis_ty	pelvis_tz	hip_flexion_r	hip_adduction_r	hip_rotation_r	knee_angle_r	knee_angle_r_beta	ankle_angle_r	subtalar_angle_r	mtp_angle_r	hip_flexion_l	hip_adduction_l	hip_rotation_l	knee_angle_l	knee_angle_l_beta	ankle_angle_l	subtalar_angle_l	mtp_angle_l	lumbar_extension	lumbar_bending	lumbar_rotation	arm_flex_r	arm_add_r	arm_rot_r	elbow_flex_r	pro_sup_r	wrist_flex_r	wrist_dev_r	arm_flex_l	arm_add_l	arm_rot_l	elbow_flex_l	pro_sup_l	wrist_flex_l	wrist_dev_l
      0.77000000	     17.12265002	      0.57590823	      2.91137242	     -0.03169891	      0.94685699	     -1.02569145	      3.92168598	      0.34559955	     -5.17736910	    -46.85032633	     -0.81769245	      6.17990932	    -16.85880500	     14.72392460	    -18.43047388	     -1.88654075	      7.15390411	    -15.63812155	     -0.27293671	     12.72257018	      3.62262628	     -5.40354584	    -24.95797393	      0.45132141	     -4.46533718	     -9.19121866	    -10.93441750	      0.36753397	     20.07797738	     89.95437384	      0.00000000	      0.00000000	      8.60682367	      9.75021353	      7.86669187	     28.36765352	     89.95437384	      0.00000000	      0.00000000
      0.78000000	     16.66450558	      0.63795961	      2.85947458	     -0.01934296	      0.94498809	     -1.02632252	      5.62969078	     -0.09235372	     -5.91247871	    -45.26570563	     -0.79003560	      6.12988309	    -16.55450899	     14.52996404	    -18.71768079	     -2.03123180	      7.33060439	    -15.77396263	     -0.27530758	     13.09167380	      3.60903860	     -5.32730142	    -24.53273307	      0.42300338	     -4.41574207	     -9.66154230	    -10.97846277	      0.41534180	     19.86900664	     89.95437384	      0.00000000	      0.00000000	      9.67642586	      9.65594048	      7.72712522	     29.56693637	     89.95437384	      0.00000000	      0.00000000
      0.79000000	     16.82130016	      0.20408957	      3.59712269	     -0.00686726	      0.94406980	     -1.02735141	      6.16918881	      0.15144878	     -7.30165181	    -42.74969699	     -0.74612297	      5.20169607	    -16.59245080	     14.83425258	    -19.76323049	     -1.40593074	      6.35219889	    -15.71391150	     -0.27425949	     14.23520464	      4.20731998	     -5.34901497	    -24.75364940	      1.18191859	     -5.02061048	     -9.79968655	    -10.88397472	      0.11383609	     19.32593385	     89.95437384	      0.00000000	      0.00000000	     10.39401180	      9.87167213	      6.90711209	     31.42214553	     89.95437384	      0.00000000	      0.00000000
      0.80000000	     16.72584457	      0.02245438	      3.91935537	      0.00568738	      0.94248585	     -1.02808243	      7.06861572	      0.05322161	     -8.48548799	    -40.46764442	     -0.70629364	      4.43857422	    -16.28231615	     14.90225195	    -20.59009730	     -1.19628966	      5.69805152	    -15.56886899	     -0.27172802	     14.80133888	      4.79366827	     -5.32927167	    -24.69652052	      1.53706011	     -5.23483432	    -10.13214851	    -10.85747818	     -0.19010817	     19.02839937	     89.95437384	      0.00000000	      0.00000000	     11.24873531	      9.92432879	      6.37211585	     32.99230352	     89.95437384	      0.00000000	      0.00000000
      0.81000000	     16.43462478	     -0.08926431	      4.07573871	      0.01825648	      0.94035376	     -1.02862798	      8.22989140	     -0.14167875	     -9.54231720	    -38.29779461	     -0.66842261	      3.63297609	    -15.55399549	     14.75052143	    -21.15271268	     -1.09374240	      5.34257390	    -15.53308518	     -0.27110348	     15.54949552	      5.04735179	     -5.32280783	    -24.43433566	      1.76382477	     -5.39425451	    -10.42241658	    -10.85292463	     -0.37802311	     18.70051585	     89.95437384	      0.00000000	      0.00000000	     11.94262069	     10.00803724	      5.84367078	     34.75257308	     89.95437384	      0.00000000	      0.00000000
      0.82000000	     16.35554511	     -0.26169466	      4.47100323	      0.03115075	      0.93839495	     -1.02924873	      8.90149124	     -0.24086902	    -10.95258048	    -35.75812922	     -0.62409709	      2.96825235	    -14.74766145	     14.40668280	    -21.92736990	     -0.80323450	      4.79503200	    -15.53387409	     -0.27111725	     16.17939490	      5.51220446	     -5.35258519	    -24.35026606	      2.12495369	     -5.70481710	    -10.74634131	    -10.82216212	     -0.67308622	     18.44934018	     89.95437384	      0.00000000	      0.00000000	     12.58947852	     10.15306116	      5.16250387	     36.56795040	     89.95437384	      0.00000000	      0.00000000
      0.83000000	     16.29968241	     -0.40092954	      4.80512129	      0.04411866	      0.93631883	     -1.02993519	      9.43657947	     -0.35508541	    -12.20626302	    -33.16732906	     -0.57887910	      2.42270093	    -13.39026663	     13.43359056	    -22.78055787	     -0.59703611	      4.13896822	    -15.45145675	     -0.26967879	     16.62699326	      6.13286241	     -5.44125709	    -24.29299299	      2.45902667	     -5.94685688	    -11.12966172	    -10.80029765	     -1.22207715	     18.33280936	     89.95437384	      0.00000000	      0.00000000	     13.18124294	     10.25854751	      4.51340359	     38.43412732	     89.95437384	      0.00000000	      0.00000000
      0.84000000	     16.13657383	     -0.41582910	      5.05985038	      0.05719704	      0.93391213	     -1.03057223	     10.05969562	     -0.70086633	    -13.67206891	    -30.58764440	     -0.53385511	      1.10455778	    -12.15788739	      3.08575941	    -23.62055214	     -0.58198919	      3.29920322	    -15.20585512	     -0.26539224	     17.26270722	      7.35337531	     -6.93415632	    -24.11915481	      2.62443458	     -6.23648454	    -11.41212336	    -10.76205459	     -1.73376130	     18.10158482	     89.95437384	      0.00000000	      0.00000000	     13.67103452	     10.43775737	      3.83238078	     40.35093714	     89.95437384	      0.00000000	      0.00000000
      0.85000000	     15.92995221	     -0.67818064	      5.39669595	      0.07025988	      0.93128552	     -1.03092185	     10.64586976	     -0.60865448	    -14.83906920	    -28.05206059	     -0.48960082	      1.25216029	    -10.21625761	      2.65286859	    -24.14044823	     -0.15181926	      3.08553705	    -15.47260260	     -0.27004786	     17.88650300	      7.37187791	     -6.91739307	    -23.88967190	      3.04183120	     -6.49495334	    -11.70515966	    -10.78177065	     -2.06219864	     17.95712777	     89.95437384	      0.00000000	      0.00000000	     14.09206901	     10.58205930	      3.31090483	     42.33929495	     89.95437384	      0.00000000	      0.00000000
      0.86000000	     15.88728119	     -0.92115141	      5.80153842	      0.08378637	      0.92874074	     -1.03153445	     10.96080567	     -0.61964529	    -16.38236880	    -25.66136756	     -0.44787535	      1.86303853	     -7.57921502	      1.67743663	    -24.92657999	      0.26486821	      2.82340588	    -15.60888044	     -0.27242636	     18.46132592	      7.54640943	     -6.96068949	    -23.76269541	      3.51376858	     -6.81799008	    -11.98897389	    -10.77527542	     -2.72361916	     17.78427206	     89.95437384	      0.00000000	      0.00000000	     14.46557226	     10.67842344	      2.85092385	     44.21720425	     89.95437384	      0.00000000	      0.00000000
